# xmcd CD database file
#
# Track frame offsets:
#	150
#	16342
#	37075
#	65042
#	83256
#	97876
#	117136
#	140534
#	153032
#	172449
#	188588
#	201030
#	216865
#	231506
#
# Disc length: 3282 seconds
#
# Revision: 0
# Processed by: cddbd v1.5.2PL0 Copyright (c) Steve Scherf et al.
# Submitted via: CDex 1.51
#
DISCID=bb0cd00e
DTITLE=Yvette Landry - Me and T-Coe's Country
DYEAR=2014
DGENRE=Country
TTITLE0=Tennessee Waltz
TTITLE1=Cold, Cold Heart
TTITLE2=Misery Loves Company
TTITLE3=Together, Forever
TTITLE4=Can I Go Home With You
TTITLE5=I Fall To Pieces
TTITLE6=A Church, A Courtroom, And Then Goodbye
TTITLE7=Together Again
TTITLE8=It Wasn't God Who Made Honky Tonk Angels
TTITLE9=Hey Good Looking
TTITLE10=Try Being Lonely
TTITLE11=Memories of Clelia
TTITLE12=Bucket's Got A Hole In It
TTITLE13=Yvette Landry - I'm Leaving It Up To You (BONUS TRACK)
EXTD=YEAR: 2014
EXTT0=
EXTT1=
EXTT2=
EXTT3=
EXTT4=
EXTT5=
EXTT6=
EXTT7=
EXTT8=
EXTT9=
EXTT10=
EXTT11=
EXTT12=
EXTT13=
PLAYORDER=
